<?xml version="1.0" encoding="UTF-8"?>
<svg xmlns="http://www.w3.org/2000/svg" width="245" height="104" viewBox="0 0 245 104" fill="none">
  <path d="M94.448 68C94.3627 68 94.32 67.936 94.32 67.808C94.32 67.68 94.3627 67.616 94.448 67.616C95.2373 67.616 95.8347 67.5627 96.24 67.456C96.6453 67.3493 96.944 67.1467 97.136 66.848C97.328 66.528 97.488 66.048 97.616 65.408L98.704 59.36C98.832 58.5493 98.896 58.0693 98.896 57.92C98.896 57.6853 98.8533 57.5147 98.768 57.408C98.704 57.3013 98.5867 57.248 98.416 57.248C98.224 57.248 97.9253 57.3227 97.52 57.472C97.1147 57.6213 96.656 57.8133 96.144 58.048L96.08 58.08C95.9947 58.08 95.9413 58.0267 95.92 57.92C95.8987 57.8133 95.9307 57.7387 96.016 57.696L100.848 55.328C100.912 55.2853 100.976 55.2853 101.04 55.328C101.104 55.3707 101.115 55.4133 101.072 55.456L99.28 65.408C99.216 65.792 99.184 66.112 99.184 66.368C99.184 66.88 99.3547 67.2213 99.696 67.392C100.059 67.5413 100.741 67.616 101.744 67.616C101.808 67.616 101.84 67.68 101.84 67.808C101.84 67.936 101.808 68 101.744 68C101.104 68 100.603 67.9893 100.24 67.968L98.128 67.936L95.984 67.968C95.6213 67.9893 95.1093 68 94.448 68ZM112.753 56.992C113.542 57.5253 114.171 57.9947 114.641 58.4C115.131 58.8053 115.547 59.3067 115.889 59.904C116.23 60.48 116.401 61.1413 116.401 61.888C116.401 62.208 116.369 62.528 116.305 62.848C116.113 63.9147 115.675 64.8747 114.993 65.728C114.31 66.56 113.478 67.2213 112.497 67.712C111.515 68.1813 110.513 68.416 109.489 68.416C108.401 68.416 107.462 68.224 106.673 67.84C105.883 67.4347 105.286 66.9013 104.881 66.24C104.475 65.5787 104.273 64.8533 104.273 64.064C104.273 62.656 104.838 61.312 105.969 60.032C107.099 58.752 108.39 57.792 109.841 57.152C109.137 56.6613 108.593 56.1813 108.209 55.712C107.846 55.2213 107.665 54.656 107.665 54.016C107.665 53.9093 107.686 53.7067 107.729 53.408C107.857 52.5973 108.177 51.9147 108.689 51.36C109.222 50.784 109.841 50.3573 110.545 50.08C111.249 49.7813 111.953 49.632 112.657 49.632C113.403 49.632 114.043 49.792 114.577 50.112C115.131 50.4107 115.547 50.8053 115.825 51.296C116.102 51.7653 116.241 52.2453 116.241 52.736C116.241 52.8853 116.219 53.0667 116.177 53.28C116.07 53.8773 115.707 54.5067 115.089 55.168C114.47 55.8293 113.691 56.4373 112.753 56.992ZM109.457 53.056C109.457 53.824 109.702 54.4747 110.193 55.008C110.705 55.5413 111.451 56.1387 112.433 56.8C113.606 55.8187 114.267 54.7733 114.417 53.664C114.459 53.3653 114.481 53.1307 114.481 52.96C114.481 52.1707 114.257 51.5093 113.809 50.976C113.361 50.4213 112.763 50.144 112.017 50.144C111.27 50.144 110.651 50.4107 110.161 50.944C109.691 51.456 109.457 52.16 109.457 53.056ZM114.353 63.776C114.417 63.392 114.449 63.04 114.449 62.72C114.449 61.9307 114.278 61.2373 113.937 60.64C113.595 60.0427 113.179 59.5413 112.689 59.136C112.198 58.7307 111.558 58.272 110.769 57.76L110.193 57.376C109.169 57.9093 108.326 58.6133 107.665 59.488C107.025 60.3413 106.609 61.312 106.417 62.4C106.353 62.7413 106.321 63.0827 106.321 63.424C106.321 64.6613 106.683 65.7067 107.409 66.56C108.134 67.4133 109.126 67.84 110.385 67.84C111.345 67.84 112.187 67.4773 112.913 66.752C113.659 66.0053 114.139 65.0133 114.353 63.776ZM128.99 55.36C129.396 55.36 129.769 55.4987 130.11 55.776C130.452 56.0533 130.622 56.384 130.622 56.768C130.622 57.0453 130.537 57.2693 130.366 57.44C130.196 57.6107 129.982 57.696 129.726 57.696C129.449 57.696 129.172 57.5787 128.894 57.344C128.66 57.152 128.446 57.056 128.254 57.056C127.764 57.056 127.305 57.376 126.878 58.016L124.83 60.992L126.078 65.28C126.292 65.9627 126.516 66.4107 126.75 66.624C127.006 66.8373 127.284 66.944 127.582 66.944C128.158 66.944 128.862 66.496 129.694 65.6C129.716 65.5787 129.748 65.568 129.79 65.568C129.876 65.568 129.94 65.6107 129.982 65.696C130.025 65.76 130.025 65.8133 129.982 65.856C129.236 66.688 128.574 67.3067 127.998 67.712C127.444 68.096 126.942 68.288 126.494 68.288C126.025 68.288 125.641 68.16 125.342 67.904C125.065 67.6267 124.809 67.0933 124.574 66.304L123.55 62.816L121.566 65.984C120.969 66.944 120.51 67.5733 120.19 67.872C119.87 68.1493 119.465 68.288 118.974 68.288C118.548 68.288 118.164 68.128 117.822 67.808C117.481 67.488 117.332 67.1253 117.374 66.72C117.417 66.4853 117.524 66.304 117.694 66.176C117.865 66.048 118.068 65.984 118.302 65.984C118.494 65.984 118.644 66.016 118.75 66.08C118.857 66.1227 118.974 66.1973 119.102 66.304C119.337 66.496 119.561 66.592 119.774 66.592C120.244 66.592 120.702 66.2827 121.15 65.664L123.39 62.304L122.302 58.656C122.089 57.888 121.844 57.376 121.566 57.12C121.289 56.864 120.99 56.736 120.67 56.736C120.116 56.736 119.412 57.1733 118.558 58.048C118.537 58.0693 118.505 58.08 118.462 58.08C118.398 58.08 118.334 58.048 118.27 57.984C118.228 57.8987 118.238 57.8347 118.302 57.792C119.049 56.96 119.7 56.352 120.254 55.968C120.83 55.5627 121.342 55.36 121.79 55.36C122.238 55.36 122.633 55.5307 122.974 55.872C123.316 56.192 123.604 56.768 123.838 57.6L124.67 60.416L126.43 57.664C127.028 56.704 127.486 56.0853 127.806 55.808C128.126 55.5093 128.521 55.36 128.99 55.36ZM148.787 68.288C148.382 68.288 148.083 68.1813 147.891 67.968C147.72 67.7333 147.635 67.3493 147.635 66.816C147.635 66.368 147.699 65.8133 147.827 65.152L150.995 48.192C151.038 48.0213 151.059 47.7867 151.059 47.488C151.059 46.9547 150.846 46.688 150.419 46.688C150.078 46.688 149.566 46.848 148.883 47.168H148.819C148.734 47.168 148.67 47.1147 148.627 47.008C148.606 46.9013 148.638 46.8373 148.723 46.816L152.851 44.8H152.915C153 44.8 153.075 44.832 153.139 44.896C153.224 44.96 153.256 45.0133 153.235 45.056L149.523 65.152C149.438 65.6213 149.395 65.92 149.395 66.048C149.395 66.368 149.448 66.6133 149.555 66.784C149.683 66.9333 149.843 67.008 150.035 67.008C150.483 67.008 151.176 66.5173 152.115 65.536C152.158 65.4933 152.2 65.472 152.243 65.472C152.307 65.472 152.36 65.5147 152.403 65.6C152.446 65.664 152.435 65.728 152.371 65.792C151.646 66.6453 150.995 67.2747 150.419 67.68C149.864 68.0853 149.32 68.288 148.787 68.288ZM158.397 68.448C157.138 68.448 156.146 68 155.421 67.104C154.717 66.208 154.365 65.0347 154.365 63.584C154.365 62.9227 154.418 62.336 154.525 61.824C154.759 60.5867 155.207 59.4667 155.869 58.464C156.53 57.4613 157.33 56.672 158.269 56.096C159.207 55.52 160.199 55.232 161.245 55.232C162.567 55.232 163.591 55.68 164.317 56.576C165.042 57.4507 165.405 58.592 165.405 60C165.405 60.5973 165.341 61.2053 165.213 61.824C164.957 63.1253 164.477 64.288 163.773 65.312C163.069 66.3147 162.237 67.0933 161.277 67.648C160.338 68.1813 159.378 68.448 158.397 68.448ZM159.517 67.648C160.413 67.648 161.223 67.2533 161.949 66.464C162.674 65.6747 163.165 64.5973 163.421 63.232C163.527 62.5493 163.581 61.9307 163.581 61.376C163.581 59.904 163.293 58.6453 162.717 57.6C162.162 56.5333 161.362 56 160.317 56C159.399 56 158.578 56.4053 157.853 57.216C157.127 58.0053 156.626 59.0827 156.349 60.448C156.221 61.088 156.157 61.7387 156.157 62.4C156.157 63.8293 156.455 65.0667 157.053 66.112C157.65 67.136 158.471 67.648 159.517 67.648ZM178.507 55.392C178.613 55.392 178.667 55.52 178.667 55.776C178.667 56.032 178.613 56.3093 178.507 56.608C178.421 56.8853 178.336 57.0027 178.251 56.96C177.76 56.704 177.163 56.576 176.459 56.576C176.181 56.576 175.968 56.5867 175.819 56.608C176.267 57.2267 176.491 57.9947 176.491 58.912C176.491 59.36 176.448 59.7653 176.363 60.128C176.171 61.0667 175.797 61.8987 175.243 62.624C174.688 63.328 174.037 63.8827 173.291 64.288C172.565 64.672 171.819 64.864 171.051 64.864C170.837 64.864 170.581 64.8427 170.283 64.8C170.005 65.12 169.845 65.4613 169.803 65.824C169.739 66.3787 169.941 66.8587 170.411 67.264C170.901 67.648 171.659 68.096 172.683 68.608C173.493 69.0347 174.133 69.3973 174.603 69.696C175.093 69.9947 175.509 70.368 175.851 70.816C176.213 71.264 176.395 71.776 176.395 72.352C176.395 73.1627 176.085 73.92 175.467 74.624C174.848 75.3493 174.016 75.9253 172.971 76.352C171.947 76.7787 170.837 76.992 169.643 76.992C168.171 76.992 166.997 76.672 166.123 76.032C165.248 75.4133 164.811 74.656 164.811 73.76C164.811 72.8213 165.205 71.9893 165.995 71.264C166.784 70.5387 167.925 69.7493 169.419 68.896C168.651 68.3413 168.267 67.744 168.267 67.104C168.267 66.6773 168.395 66.2827 168.651 65.92C168.907 65.536 169.291 65.12 169.803 64.672C169.163 64.4373 168.661 64.0213 168.299 63.424C167.957 62.8267 167.787 62.144 167.787 61.376C167.787 61.0133 167.84 60.5973 167.947 60.128C168.203 58.784 168.843 57.6747 169.867 56.8C170.891 55.904 172.032 55.456 173.291 55.456C174.165 55.456 174.88 55.7013 175.435 56.192C176.565 55.6587 177.589 55.392 178.507 55.392ZM174.635 60.992C174.699 60.608 174.731 60.2133 174.731 59.808C174.731 58.784 174.539 57.8987 174.155 57.152C173.771 56.4053 173.216 56.032 172.491 56.032C171.851 56.032 171.253 56.352 170.699 56.992C170.165 57.6107 169.824 58.3893 169.675 59.328C169.611 59.7333 169.579 60.1387 169.579 60.544C169.579 61.568 169.781 62.4427 170.187 63.168C170.592 63.8933 171.147 64.256 171.851 64.256C172.491 64.256 173.067 63.968 173.579 63.392C174.112 62.7947 174.464 61.9947 174.635 60.992ZM174.795 73.504C174.795 72.7573 174.496 72.128 173.899 71.616C173.301 71.1253 172.427 70.5707 171.275 69.952C170.677 69.6747 170.165 69.3973 169.739 69.12C168.715 69.76 167.936 70.336 167.403 70.848C166.891 71.3813 166.635 72.064 166.635 72.896C166.635 73.8133 167.051 74.5707 167.883 75.168C168.715 75.7867 169.813 76.096 171.179 76.096C172.331 76.096 173.216 75.8507 173.835 75.36C174.475 74.8693 174.795 74.2507 174.795 73.504ZM184.552 71.744C183.25 70.8693 182.258 69.6107 181.576 67.968C180.893 66.3253 180.552 64.4373 180.552 62.304C180.552 61.024 180.68 59.68 180.936 58.272C181.469 55.2427 182.472 52.5227 183.944 50.112C185.437 47.7013 187.218 45.9307 189.288 44.8H189.32C189.384 44.8 189.437 44.8427 189.48 44.928C189.544 44.992 189.544 45.0347 189.48 45.056C187.794 46.5707 186.418 48.4267 185.352 50.624C184.285 52.8 183.496 55.3493 182.984 58.272C182.664 60.064 182.504 61.728 182.504 63.264C182.504 66.5707 183.261 69.312 184.776 71.488V71.52C184.776 71.584 184.744 71.6373 184.68 71.68C184.637 71.744 184.594 71.7653 184.552 71.744ZM198.897 55.36C199.302 55.36 199.675 55.4987 200.017 55.776C200.358 56.0533 200.529 56.384 200.529 56.768C200.529 57.0453 200.443 57.2693 200.273 57.44C200.102 57.6107 199.889 57.696 199.633 57.696C199.355 57.696 199.078 57.5787 198.801 57.344C198.566 57.152 198.353 57.056 198.161 57.056C197.67 57.056 197.211 57.376 196.785 58.016L194.737 60.992L195.985 65.28C196.198 65.9627 196.422 66.4107 196.657 66.624C196.913 66.8373 197.19 66.944 197.489 66.944C198.065 66.944 198.769 66.496 199.601 65.6C199.622 65.5787 199.654 65.568 199.697 65.568C199.782 65.568 199.846 65.6107 199.889 65.696C199.931 65.76 199.931 65.8133 199.889 65.856C199.142 66.688 198.481 67.3067 197.905 67.712C197.35 68.096 196.849 68.288 196.401 68.288C195.931 68.288 195.547 68.16 195.249 67.904C194.971 67.6267 194.715 67.0933 194.481 66.304L193.457 62.816L191.473 65.984C190.875 66.944 190.417 67.5733 190.097 67.872C189.777 68.1493 189.371 68.288 188.881 68.288C188.454 68.288 188.07 68.128 187.729 67.808C187.387 67.488 187.238 67.1253 187.28 66.72C187.323 66.4853 187.43 66.304 187.601 66.176C187.771 66.048 187.974 65.984 188.209 65.984C188.401 65.984 188.55 66.016 188.657 66.08C188.763 66.1227 188.881 66.1973 189.009 66.304C189.243 66.496 189.467 66.592 189.681 66.592C190.15 66.592 190.609 66.2827 191.057 65.664L193.297 62.304L192.209 58.656C191.995 57.888 191.75 57.376 191.473 57.12C191.195 56.864 190.897 56.736 190.577 56.736C190.022 56.736 189.318 57.1733 188.465 58.048C188.443 58.0693 188.411 58.08 188.368 58.08C188.305 58.08 188.241 58.048 188.177 57.984C188.134 57.8987 188.145 57.8347 188.209 57.792C188.955 56.96 189.606 56.352 190.161 55.968C190.737 55.5627 191.249 55.36 191.697 55.36C192.145 55.36 192.539 55.5307 192.881 55.872C193.222 56.192 193.51 56.768 193.745 57.6L194.577 60.416L196.337 57.664C196.934 56.704 197.393 56.0853 197.713 55.808C198.033 55.5093 198.427 55.36 198.897 55.36ZM204.813 44.8C206.115 45.6747 207.107 46.9333 207.789 48.576C208.472 50.2187 208.813 52.1067 208.813 54.24C208.813 55.52 208.685 56.864 208.429 58.272C207.896 61.3013 206.883 64.0213 205.389 66.432C203.917 68.8427 202.147 70.6133 200.077 71.744H200.045C199.981 71.744 199.928 71.7013 199.885 71.616C199.821 71.552 199.821 71.5093 199.885 71.488C201.571 69.9733 202.947 68.128 204.013 65.952C205.08 63.7547 205.869 61.1947 206.381 58.272C206.701 56.48 206.861 54.816 206.861 53.28C206.861 49.9733 206.104 47.232 204.589 45.056V45.024C204.589 44.96 204.611 44.9067 204.653 44.864C204.717 44.8 204.771 44.7787 204.813 44.8ZM228.066 65.152C228.002 65.472 227.97 65.7493 227.97 65.984C227.97 66.6667 228.183 67.008 228.61 67.008C229.037 67.008 229.741 66.5173 230.722 65.536C230.765 65.4933 230.797 65.472 230.818 65.472C230.882 65.472 230.935 65.5147 230.978 65.6C231.042 65.664 231.042 65.728 230.978 65.792C230.21 66.6453 229.549 67.2747 228.994 67.68C228.439 68.0853 227.895 68.288 227.362 68.288C226.615 68.288 226.242 67.8187 226.242 66.88C226.242 66.5387 226.317 65.9627 226.466 65.152L227.074 61.984C226.093 63.9893 225.047 65.568 223.938 66.72C222.85 67.8507 221.741 68.416 220.61 68.416C219.842 68.416 219.213 68.1707 218.722 67.68C218.231 67.168 217.986 66.368 217.986 65.28C217.986 65.0453 218.029 64.608 218.114 63.968C218.391 62.432 218.967 60.992 219.842 59.648C220.738 58.304 221.794 57.2373 223.01 56.448C224.247 55.6373 225.474 55.232 226.69 55.232C227.287 55.232 227.799 55.3707 228.226 55.648L229.634 48.192C229.677 47.8507 229.698 47.6267 229.698 47.52C229.698 46.9653 229.463 46.688 228.994 46.688C228.653 46.688 228.13 46.848 227.426 47.168H227.362C227.298 47.168 227.245 47.1147 227.202 47.008C227.181 46.9013 227.213 46.8373 227.298 46.816L231.458 44.8H231.522C231.586 44.8 231.65 44.832 231.714 44.896C231.778 44.96 231.799 45.0133 231.778 45.056L228.066 65.152ZM221.634 66.848C222.594 66.848 223.533 66.3253 224.45 65.28C225.389 64.2347 226.157 63.0187 226.754 61.632C227.351 60.2453 227.65 59.168 227.65 58.4C227.65 57.7387 227.458 57.2373 227.074 56.896C226.69 56.5333 226.167 56.352 225.506 56.352C224.119 56.3947 222.914 56.96 221.89 58.048C220.887 59.136 220.215 60.6827 219.874 62.688C219.789 63.1787 219.746 63.6587 219.746 64.128C219.746 65.024 219.906 65.7067 220.226 66.176C220.567 66.624 221.037 66.848 221.634 66.848ZM243.053 55.36C243.458 55.36 243.831 55.4987 244.173 55.776C244.514 56.0533 244.685 56.384 244.685 56.768C244.685 57.0453 244.599 57.2693 244.429 57.44C244.258 57.6107 244.045 57.696 243.789 57.696C243.511 57.696 243.234 57.5787 242.957 57.344C242.722 57.152 242.509 57.056 242.317 57.056C241.826 57.056 241.367 57.376 240.941 58.016L238.893 60.992L240.141 65.28C240.354 65.9627 240.578 66.4107 240.813 66.624C241.069 66.8373 241.346 66.944 241.645 66.944C242.221 66.944 242.925 66.496 243.757 65.6C243.778 65.5787 243.81 65.568 243.853 65.568C243.938 65.568 244.002 65.6107 244.045 65.696C244.087 65.76 244.087 65.8133 244.045 65.856C243.298 66.688 242.637 67.3067 242.061 67.712C241.506 68.096 241.005 68.288 240.557 68.288C240.087 68.288 239.703 68.16 239.405 67.904C239.127 67.6267 238.871 67.0933 238.637 66.304L237.613 62.816L235.629 65.984C235.031 66.944 234.573 67.5733 234.253 67.872C233.933 68.1493 233.527 68.288 233.037 68.288C232.61 68.288 232.226 68.128 231.885 67.808C231.543 67.488 231.394 67.1253 231.437 66.72C231.479 66.4853 231.586 66.304 231.757 66.176C231.927 66.048 232.13 65.984 232.365 65.984C232.557 65.984 232.706 66.016 232.813 66.08C232.919 66.1227 233.037 66.1973 233.165 66.304C233.399 66.496 233.623 66.592 233.837 66.592C234.306 66.592 234.765 66.2827 235.213 65.664L237.453 62.304L236.365 58.656C236.151 57.888 235.906 57.376 235.629 57.12C235.351 56.864 235.053 56.736 234.733 56.736C234.178 56.736 233.474 57.1733 232.621 58.048C232.599 58.0693 232.567 58.08 232.525 58.08C232.461 58.08 232.397 58.048 232.333 57.984C232.29 57.8987 232.301 57.8347 232.365 57.792C233.111 56.96 233.762 56.352 234.317 55.968C234.893 55.5627 235.405 55.36 235.853 55.36C236.301 55.36 236.695 55.5307 237.037 55.872C237.378 56.192 237.666 56.768 237.901 57.6L238.733 60.416L240.493 57.664C241.09 56.704 241.549 56.0853 241.869 55.808C242.189 55.5093 242.583 55.36 243.053 55.36Z" fill="black"></path>
  <path d="M1.664 60.768V60.096H8V60.768H1.664ZM11.059 67.52C12.9363 65.984 14.387 64.736 15.411 63.776C16.435 62.7947 17.171 61.92 17.619 61.152C18.067 60.384 18.291 59.616 18.291 58.848C18.291 57.9947 18.0243 57.3013 17.491 56.768C16.979 56.2133 16.307 55.936 15.475 55.936C13.7897 55.936 12.5737 57.2587 11.827 59.904C11.827 59.9253 11.7843 59.936 11.699 59.936C11.507 59.936 11.4217 59.8933 11.443 59.808L12.691 54.944C12.691 54.9013 12.7337 54.88 12.819 54.88C12.883 54.88 12.9363 54.9013 12.979 54.944C13.043 54.9653 13.0643 54.9867 13.043 55.008C13.0217 55.0933 13.011 55.2107 13.011 55.36C13.011 55.7013 13.171 55.872 13.491 55.872C13.683 55.872 14.003 55.7973 14.451 55.648C15.3257 55.3707 16.1043 55.232 16.787 55.232C17.875 55.232 18.7283 55.5307 19.347 56.128C19.987 56.704 20.307 57.4613 20.307 58.4C20.307 59.1467 20.0617 59.8933 19.571 60.64C19.1017 61.3867 18.3977 62.1867 17.459 63.04C16.5417 63.872 15.251 64.928 13.587 66.208C13.5017 66.272 13.4697 66.3253 13.491 66.368C13.5337 66.4107 13.6083 66.432 13.715 66.432C16.0617 66.432 17.6937 66.4 18.611 66.336C19.5283 66.272 20.1897 66.1013 20.595 65.824C21.0003 65.5467 21.2777 65.056 21.427 64.352C21.427 64.3093 21.4803 64.288 21.587 64.288C21.7363 64.288 21.811 64.32 21.811 64.384L21.331 67.648C21.331 67.7333 21.299 67.8187 21.235 67.904C21.1923 67.968 21.1283 68 21.043 68H11.283C11.1763 68 11.091 67.9467 11.027 67.84C10.963 67.712 10.9737 67.6053 11.059 67.52ZM30.43 68.416C29.1713 68.416 28.0407 68.128 27.038 67.552C26.0567 66.976 25.278 66.1867 24.702 65.184C24.1473 64.16 23.87 63.008 23.87 61.728C23.87 60.4693 24.1473 59.3493 24.702 58.368C25.278 57.3867 26.0673 56.6187 27.07 56.064C28.0727 55.5093 29.2033 55.232 30.462 55.232C31.6993 55.232 32.8087 55.52 33.79 56.096C34.7713 56.6507 35.5287 57.4293 36.062 58.432C36.6167 59.4347 36.894 60.5653 36.894 61.824C36.894 63.0827 36.6167 64.2133 36.062 65.216C35.5073 66.2187 34.7393 67.008 33.758 67.584C32.7767 68.1387 31.6673 68.416 30.43 68.416ZM30.782 67.968C32.062 67.968 33.022 67.456 33.662 66.432C34.3233 65.3867 34.654 63.9787 34.654 62.208C34.654 60.0747 34.2167 58.4533 33.342 57.344C32.4887 56.2347 31.4113 55.68 30.11 55.68C28.8513 55.68 27.8593 56.2133 27.134 57.28C26.43 58.3467 26.078 59.744 26.078 61.472C26.078 63.3707 26.5047 64.928 27.358 66.144C28.2113 67.36 29.3527 67.968 30.782 67.968ZM39.184 67.52C41.0613 65.984 42.512 64.736 43.536 63.776C44.56 62.7947 45.296 61.92 45.744 61.152C46.192 60.384 46.416 59.616 46.416 58.848C46.416 57.9947 46.1493 57.3013 45.616 56.768C45.104 56.2133 44.432 55.936 43.6 55.936C41.9147 55.936 40.6987 57.2587 39.952 59.904C39.952 59.9253 39.9093 59.936 39.824 59.936C39.632 59.936 39.5467 59.8933 39.568 59.808L40.816 54.944C40.816 54.9013 40.8587 54.88 40.944 54.88C41.008 54.88 41.0613 54.9013 41.104 54.944C41.168 54.9653 41.1893 54.9867 41.168 55.008C41.1467 55.0933 41.136 55.2107 41.136 55.36C41.136 55.7013 41.296 55.872 41.616 55.872C41.808 55.872 42.128 55.7973 42.576 55.648C43.4507 55.3707 44.2293 55.232 44.912 55.232C46 55.232 46.8533 55.5307 47.472 56.128C48.112 56.704 48.432 57.4613 48.432 58.4C48.432 59.1467 48.1867 59.8933 47.696 60.64C47.2267 61.3867 46.5227 62.1867 45.584 63.04C44.6667 63.872 43.376 64.928 41.712 66.208C41.6267 66.272 41.5947 66.3253 41.616 66.368C41.6587 66.4107 41.7333 66.432 41.84 66.432C44.1867 66.432 45.8187 66.4 46.736 66.336C47.6533 66.272 48.3147 66.1013 48.72 65.824C49.1253 65.5467 49.4027 65.056 49.552 64.352C49.552 64.3093 49.6053 64.288 49.712 64.288C49.8613 64.288 49.936 64.32 49.936 64.384L49.456 67.648C49.456 67.7333 49.424 67.8187 49.36 67.904C49.3173 67.968 49.2533 68 49.168 68H39.408C39.3013 68 39.216 67.9467 39.152 67.84C39.088 67.712 39.0987 67.6053 39.184 67.52Z" fill="black"></path>
  <path d="M80 102.325C79.0167 102.325 78.1333 102.1 77.35 101.65C76.5833 101.2 75.975 100.583 75.525 99.8C75.0917 99 74.875 98.1 74.875 97.1C74.875 96.1167 75.0917 95.2417 75.525 94.475C75.975 93.7083 76.5917 93.1083 77.375 92.675C78.1583 92.2417 79.0417 92.025 80.025 92.025C80.9917 92.025 81.8583 92.25 82.625 92.7C83.3917 93.1333 83.9833 93.7417 84.4 94.525C84.8333 95.3083 85.05 96.1917 85.05 97.175C85.05 98.1583 84.8333 99.0417 84.4 99.825C83.9667 100.608 83.3667 101.225 82.6 101.675C81.8333 102.108 80.9667 102.325 80 102.325ZM80.275 101.975C81.275 101.975 82.025 101.575 82.525 100.775C83.0417 99.9583 83.3 98.8583 83.3 97.475C83.3 95.8083 82.9583 94.5417 82.275 93.675C81.6083 92.8083 80.7667 92.375 79.75 92.375C78.7667 92.375 77.9917 92.7917 77.425 93.625C76.875 94.4583 76.6 95.55 76.6 96.9C76.6 98.3833 76.9333 99.6 77.6 100.55C78.2667 101.5 79.1583 101.975 80.275 101.975Z" fill="black"></path>
  <path d="M132.703 55.715C133.818 54.803 134.679 54.062 135.287 53.492C135.895 52.9093 136.332 52.39 136.598 51.934C136.864 51.478 136.997 51.022 136.997 50.566C136.997 50.0593 136.839 49.6477 136.522 49.331C136.218 49.0017 135.819 48.837 135.325 48.837C134.324 48.837 133.602 49.6223 133.159 51.193C133.159 51.2057 133.134 51.212 133.083 51.212C132.969 51.212 132.918 51.1867 132.931 51.136L133.672 48.248C133.672 48.2227 133.697 48.21 133.748 48.21C133.786 48.21 133.818 48.2227 133.843 48.248C133.881 48.2607 133.894 48.2733 133.881 48.286C133.868 48.3367 133.862 48.4063 133.862 48.495C133.862 48.6977 133.957 48.799 134.147 48.799C134.261 48.799 134.451 48.7547 134.717 48.666C135.236 48.5013 135.699 48.419 136.104 48.419C136.75 48.419 137.257 48.5963 137.624 48.951C138.004 49.293 138.194 49.7427 138.194 50.3C138.194 50.7433 138.048 51.1867 137.757 51.63C137.478 52.0733 137.06 52.5483 136.503 53.055C135.958 53.549 135.192 54.176 134.204 54.936C134.153 54.974 134.134 55.0057 134.147 55.031C134.172 55.0563 134.217 55.069 134.28 55.069C135.673 55.069 136.642 55.05 137.187 55.012C137.732 54.974 138.124 54.8727 138.365 54.708C138.606 54.5433 138.77 54.252 138.859 53.834C138.859 53.8087 138.891 53.796 138.954 53.796C139.043 53.796 139.087 53.815 139.087 53.853L138.802 55.791C138.802 55.8417 138.783 55.8923 138.745 55.943C138.72 55.981 138.682 56 138.631 56H132.836C132.773 56 132.722 55.9683 132.684 55.905C132.646 55.829 132.652 55.7657 132.703 55.715Z" fill="black"></path>
  <path d="M95.45 23.375C95.45 22.8583 95.4 22.4833 95.3 22.25C95.2 22.0167 95 21.8583 94.7 21.775C94.4167 21.6917 93.95 21.65 93.3 21.65C93.25 21.65 93.225 21.6 93.225 21.5C93.225 21.4 93.25 21.35 93.3 21.35C93.7833 21.35 94.1667 21.3583 94.45 21.375L96.15 21.4L97.825 21.375C98.1083 21.3583 98.5 21.35 99 21.35C99.05 21.35 99.075 21.4 99.075 21.5C99.075 21.6 99.05 21.65 99 21.65C98.3833 21.65 97.925 21.7 97.625 21.8C97.3417 21.8833 97.1417 22.0417 97.025 22.275C96.9083 22.5083 96.85 22.875 96.85 23.375V28.975C96.85 29.4917 96.9 29.8667 97 30.1C97.1 30.3333 97.2917 30.4917 97.575 30.575C97.875 30.6583 98.35 30.7 99 30.7C99.05 30.7 99.075 30.75 99.075 30.85C99.075 30.95 99.05 31 99 31C98.5167 31 98.1333 30.9917 97.85 30.975L96.15 30.95L94.475 30.975C94.1917 30.9917 93.8 31 93.3 31C93.25 31 93.225 30.95 93.225 30.85C93.225 30.75 93.25 30.7 93.3 30.7C93.9167 30.7 94.3667 30.6583 94.65 30.575C94.95 30.475 95.1583 30.3083 95.275 30.075C95.3917 29.8417 95.45 29.475 95.45 28.975V23.375Z" fill="black"></path>
  <path d="M58.38 103.77C56.9867 103.77 55.8783 103.453 55.055 102.82C54.1683 102.187 53.7883 101.363 53.915 100.35C54.0417 99.59 54.39 98.925 54.96 98.355C55.53 97.8483 56.2583 97.595 57.145 97.595C58.0317 97.595 58.6333 97.8483 58.95 98.355C59.2667 98.8617 59.4883 99.5267 59.615 100.35C59.7417 101.553 60.09 102.155 60.66 102.155C61.61 102.155 62.465 101.173 63.225 99.21C64.0483 97.31 64.6817 94.5867 65.125 91.04L71.395 44.585C73.485 28.3717 78.045 20.265 85.075 20.265C86.405 20.265 87.5133 20.5183 88.4 21.025C89.2867 21.5317 89.73 22.26 89.73 23.21C89.73 24.0333 89.4133 24.7933 88.78 25.49C88.21 26.1233 87.4817 26.44 86.595 26.44C85.7083 26.44 85.1067 26.2183 84.79 25.775C84.4733 25.2683 84.22 24.5717 84.03 23.685C83.9033 23.0517 83.745 22.6083 83.555 22.355C83.4283 22.0383 83.2067 21.88 82.89 21.88C80.99 21.88 79.5017 25.585 78.425 32.995L72.25 79.45C71.0467 88.6333 69.1783 94.9667 66.645 98.45C64.1117 101.997 61.3567 103.77 58.38 103.77Z" fill="black"></path>
</svg>
